<svg width="15" height="16" viewBox="0 0 15 16" fill="none" xmlns="http://www.w3.org/2000/svg">
<g clip-path="url(#clip0_76_728)">
<path d="M3.04675 15.0316H2.10925C1.92277 15.0316 1.74393 14.9575 1.61207 14.8257C1.48021 14.6938 1.40613 14.515 1.40613 14.3285V10.1097C1.40613 9.92326 1.48021 9.74442 1.61207 9.61256C1.74393 9.4807 1.92277 9.40662 2.10925 9.40662H3.04675C3.23323 9.40662 3.41208 9.4807 3.54394 9.61256C3.6758 9.74442 3.74988 9.92326 3.74988 10.1097V14.3285C3.74988 14.515 3.6758 14.6938 3.54394 14.8257C3.41208 14.9575 3.23323 15.0316 3.04675 15.0316Z" fill="#76C139"/>
<path d="M9.60931 15.0308H8.67181C8.48533 15.0308 8.30649 14.9567 8.17463 14.8248C8.04277 14.693 7.96869 14.5141 7.96869 14.3276V7.29639C7.96869 7.10991 8.04277 6.93106 8.17463 6.7992C8.30649 6.66734 8.48533 6.59326 8.67181 6.59326H9.60931C9.79579 6.59326 9.97464 6.66734 10.1065 6.7992C10.2384 6.93106 10.3124 7.10991 10.3124 7.29639V14.3276C10.3124 14.5141 10.2384 14.693 10.1065 14.8248C9.97464 14.9567 9.79579 15.0308 9.60931 15.0308Z" fill="#76C139"/>
<path d="M12.8905 15.0312H11.953C11.7665 15.0312 11.5877 14.9572 11.4558 14.8253C11.324 14.6934 11.2499 14.5146 11.2499 14.3281V4.01562C11.2499 3.82914 11.324 3.6503 11.4558 3.51844C11.5877 3.38658 11.7665 3.3125 11.953 3.3125H12.8905C13.077 3.3125 13.2558 3.38658 13.3877 3.51844C13.5195 3.6503 13.5936 3.82914 13.5936 4.01562V14.3281C13.5936 14.5146 13.5195 14.6934 13.3877 14.8253C13.2558 14.9572 13.077 15.0312 12.8905 15.0312Z" fill="#76C139"/>
<path d="M6.328 15.031H5.3905C5.20402 15.031 5.02518 14.9569 4.89332 14.8251C4.76146 14.6932 4.68738 14.5144 4.68738 14.3279V1.67163C4.68738 1.48515 4.76146 1.30631 4.89332 1.17445C5.02518 1.04258 5.20402 0.968506 5.3905 0.968506H6.328C6.51448 0.968506 6.69333 1.04258 6.82519 1.17445C6.95705 1.30631 7.03113 1.48515 7.03113 1.67163V14.3279C7.03113 14.5144 6.95705 14.6932 6.82519 14.8251C6.69333 14.9569 6.51448 15.031 6.328 15.031Z" fill="#76C139"/>
</g>
<defs>
<clipPath id="clip0_76_728">
<rect width="15" height="15" fill="white" transform="translate(-6.10352e-05 0.5)"/>
</clipPath>
</defs>
</svg>
