<svg width="16" height="16" viewBox="0 0 16 16" fill="none" xmlns="http://www.w3.org/2000/svg">
<path d="M14.4934 1.62154C14.488 1.59562 14.4754 1.57178 14.457 1.55278C14.4386 1.53379 14.4151 1.52045 14.3894 1.51431C12.6735 1.09478 8.70871 2.5898 6.56066 4.73696C6.17754 5.11699 5.82827 5.52968 5.51682 5.97036C4.85442 5.91177 4.19201 5.96069 3.62746 6.20679C2.03459 6.90786 1.57082 8.73716 1.44162 9.52407C1.4343 9.56714 1.43706 9.61133 1.4497 9.65315C1.46234 9.69497 1.48451 9.73329 1.51447 9.76509C1.54442 9.79689 1.58135 9.82131 1.62234 9.83643C1.66333 9.85154 1.70727 9.85694 1.75071 9.8522L4.30861 9.57007C4.31044 9.76292 4.32208 9.95555 4.34348 10.1472C4.35635 10.2803 4.41543 10.4047 4.51047 10.4988L5.501 11.487C5.59516 11.5819 5.7195 11.6409 5.85256 11.654C6.04315 11.6753 6.23471 11.6869 6.42648 11.6888L6.14582 14.2435C6.14114 14.2869 6.14658 14.3308 6.16171 14.3718C6.17685 14.4128 6.20127 14.4497 6.23306 14.4796C6.26485 14.5095 6.30314 14.5317 6.34493 14.5444C6.38673 14.557 6.43088 14.5599 6.47395 14.5526C7.25939 14.4266 9.09191 13.9628 9.78889 12.37C10.035 11.8054 10.0854 11.1462 10.0285 10.4871C10.4703 10.1756 10.8841 9.82622 11.2652 9.44292C13.4199 7.29897 14.9065 3.42271 14.4934 1.62154ZM9.11535 6.8853C8.91859 6.68867 8.78457 6.4381 8.73023 6.16529C8.6759 5.89248 8.70369 5.60968 8.8101 5.35267C8.91651 5.09566 9.09675 4.87598 9.32803 4.72142C9.5593 4.56686 9.83122 4.48436 10.1094 4.48436C10.3876 4.48436 10.6595 4.56686 10.8908 4.72142C11.122 4.87598 11.3023 5.09566 11.4087 5.35267C11.5151 5.60968 11.5429 5.89248 11.4886 6.16529C11.4342 6.4381 11.3002 6.68867 11.1034 6.8853C10.973 7.01596 10.818 7.11962 10.6474 7.19034C10.4769 7.26106 10.294 7.29746 10.1094 7.29746C9.92475 7.29746 9.74191 7.26106 9.57134 7.19034C9.40077 7.11962 9.24582 7.01596 9.11535 6.8853Z" fill="#76C139"/>
<path d="M5.43359 12.2028C5.27305 12.3636 5.01553 12.4263 4.70557 12.4799C4.00918 12.5986 3.39424 11.9968 3.51934 11.2928C3.56709 11.0259 3.7083 10.6518 3.79619 10.5639C3.8154 10.5451 3.82819 10.5207 3.83273 10.4941C3.83728 10.4676 3.83336 10.4403 3.82152 10.4162C3.80968 10.392 3.79053 10.3722 3.76679 10.3595C3.74305 10.3469 3.71592 10.342 3.68926 10.3457C3.29983 10.3933 2.93754 10.5699 2.66006 10.8472C1.97129 11.5366 1.90625 14.0945 1.90625 14.0945C1.90625 14.0945 4.46562 14.0294 5.15439 13.3401C5.43261 13.0628 5.60939 12.7 5.65625 12.31C5.66709 12.1875 5.51797 12.1146 5.43359 12.2028Z" fill="#76C139"/>
</svg>
